<svg width="117" height="130" viewBox="0 0 117 130" fill="none" xmlns="http://www.w3.org/2000/svg">
<g clip-path="url(#clip0_3772_23461)">
<path d="M92.6744 21.9856C83.349 22.724 77.561 54.6311 60.8331 50.5698C44.1053 46.5085 53.7898 33.1183 63.5021 32.8478C73.2145 32.5772 91.1966 40.3896 83.7362 57.3732C76.2759 74.3568 56.5023 78.933 65.7748 88.3104M28.0352 92.1013C28.0352 92.1013 35.2919 91.3032 44.7129 100.276C51.2004 106.454 62.183 119.2 67.2458 111.037C73.7931 100.481 34.4856 102.077 46.0763 123.326C49.8791 130.297 65.6093 130.168 75.7296 126.574" stroke="#494949" stroke-width="1.5" stroke-linecap="round" stroke-linejoin="round"/>
<path d="M80.0135 126.408C81.2495 126.408 82.2515 125.417 82.2515 124.193C82.2515 122.97 81.2495 121.978 80.0135 121.978C78.7774 121.978 77.7754 122.97 77.7754 124.193C77.7754 125.417 78.7774 126.408 80.0135 126.408Z" fill="#FF5943" stroke="#494949" stroke-width="1.5" stroke-linecap="round" stroke-linejoin="round"/>
<path d="M73.955 85.0401C74.6389 85.0401 75.1933 84.4914 75.1933 83.8145C75.1933 83.1376 74.6389 82.5889 73.955 82.5889C73.2712 82.5889 72.7168 83.1376 72.7168 83.8145C72.7168 84.4914 73.2712 85.0401 73.955 85.0401Z" fill="#FF5943" stroke="#494949" stroke-width="1.5" stroke-linecap="round" stroke-linejoin="round"/>
<path d="M48.1016 72.7214C49.0115 72.7214 49.7492 71.9913 49.7492 71.0907C49.7492 70.1901 49.0115 69.46 48.1016 69.46C47.1917 69.46 46.4541 70.1901 46.4541 71.0907C46.4541 71.9913 47.1917 72.7214 48.1016 72.7214Z" fill="white" stroke="#494949" stroke-width="1.5" stroke-linecap="round" stroke-linejoin="round"/>
<path d="M69.9853 90.6959C71.3098 90.6959 72.3836 89.6331 72.3836 88.3221C72.3836 87.011 71.3098 85.9482 69.9853 85.9482C68.6607 85.9482 67.5869 87.011 67.5869 88.3221C67.5869 89.6331 68.6607 90.6959 69.9853 90.6959Z" stroke="#494949" stroke-width="1.5" stroke-miterlimit="10" stroke-linecap="round"/>
<path d="M52.3719 32.8365C53.6079 32.8365 54.6099 31.8447 54.6099 30.6212C54.6099 29.3978 53.6079 28.406 52.3719 28.406C51.1358 28.406 50.1338 29.3978 50.1338 30.6212C50.1338 31.8447 51.1358 32.8365 52.3719 32.8365Z" fill="#2FC163" stroke="#494949" stroke-width="1.5" stroke-linecap="round" stroke-linejoin="round"/>
<path d="M30.2869 67.7416C32.141 67.7416 33.6441 66.2538 33.6441 64.4186C33.6441 62.5834 32.141 61.0957 30.2869 61.0957C28.4328 61.0957 26.9297 62.5834 26.9297 64.4186C26.9297 66.2538 28.4328 67.7416 30.2869 67.7416Z" fill="#FF5943" stroke="#494949" stroke-width="1.5" stroke-linecap="round" stroke-linejoin="round"/>
<path d="M93.0898 11.0813L95.3764 24.2488L114.5 1L93.0898 11.0813Z" fill="#2FC163" stroke="#494949" stroke-width="1.5" stroke-linecap="round" stroke-linejoin="round"/>
<path d="M99.118 11.2871L95.3765 24.2488L114.5 1L99.118 11.2871Z" fill="#7CE09D" stroke="#494949" stroke-width="1.5" stroke-linecap="round" stroke-linejoin="round"/>
<path d="M99.1182 11.2871L108.888 20.957L114.5 1L99.1182 11.2871Z" fill="#FFDE55" stroke="#494949" stroke-width="1.5" stroke-linecap="round" stroke-linejoin="round"/>
<path d="M93.0899 11.0813L83.9438 11.4928L114.5 1L93.0899 11.0813Z" fill="#FFDE55" stroke="#494949" stroke-width="1.5" stroke-linecap="round" stroke-linejoin="round"/>
<path d="M23.966 83.4202L25.7216 96.6671L0.5 80.0664L23.966 83.4202Z" fill="#2B47EC" stroke="#494949" stroke-width="1.5" stroke-linecap="round" stroke-linejoin="round"/>
<path d="M18.2699 85.3834L25.7216 96.6671L0.5 80.0664L18.2699 85.3834Z" fill="#85BCFF" stroke="#494949" stroke-width="1.5" stroke-linecap="round" stroke-linejoin="round"/>
<path d="M18.2699 85.3834L11.8315 97.4833L0.5 80.0664L18.2699 85.3834Z" fill="#FF5943" stroke="#494949" stroke-width="1.5" stroke-linecap="round" stroke-linejoin="round"/>
<path d="M23.966 83.4202L32.825 81.1324L0.5 80.0664L23.966 83.4202Z" fill="#FF5943" stroke="#494949" stroke-width="1.5" stroke-linecap="round" stroke-linejoin="round"/>
</g>
<defs>
<clipPath id="clip0_3772_23461">
<rect width="117" height="130" fill="white"/>
</clipPath>
</defs>
</svg>
