<svg width="67" height="20" viewBox="0 0 67 20" fill="none" xmlns="http://www.w3.org/2000/svg">
<path d="M20.4026 20V17.5484H21.6752C22.0924 17.5484 22.4054 17.4839 22.614 17.3548C22.8365 17.2401 23.0243 16.9749 23.1773 16.5591L23.4902 15.6989L19.1717 3.5914H22.2176L24.9506 12.4516L27.4124 3.5914H30.4374L25.8894 17.0753C25.5278 18.1505 25.0827 18.9032 24.5542 19.3333C24.0396 19.7778 23.3025 20 22.3428 20H20.4026Z" fill="#00B333"/>
<path d="M36.6634 15.8925C35.4812 15.8925 34.4381 15.6272 33.5341 15.0968C32.63 14.5663 31.9277 13.8351 31.427 12.9032C30.9402 11.957 30.6968 10.8889 30.6968 9.69893C30.6968 8.59498 30.9123 7.56272 31.3435 6.60215C31.7886 5.62724 32.4492 4.83871 33.3254 4.23656C34.2156 3.63441 35.3004 3.33333 36.58 3.33333C37.637 3.33333 38.6106 3.56272 39.5007 4.02151C40.3909 4.46595 41.1072 5.16129 41.6496 6.10753C42.192 7.03943 42.4632 8.20072 42.4632 9.5914V10.2151H33.6175C33.6592 10.7168 33.8053 11.19 34.0556 11.6344C34.3338 12.1935 34.7024 12.6308 35.1613 12.9462C35.6342 13.2473 36.1697 13.3978 36.7678 13.3978C37.4075 13.3978 37.9569 13.233 38.4159 12.9032C38.8749 12.5591 39.2017 12.1219 39.3964 11.5914H42.2755C41.8999 12.8674 41.2393 13.9068 40.2935 14.7097C39.3478 15.4982 38.1377 15.8925 36.6634 15.8925ZM39.5842 8.04301C39.5286 7.58423 39.3825 7.21147 39.1461 6.92473C38.8818 6.50896 38.5341 6.19355 38.103 5.97849C37.6718 5.7491 37.192 5.63441 36.6634 5.63441C36.1349 5.63441 35.6551 5.74194 35.2239 5.95699C34.8067 6.17204 34.4659 6.49462 34.2017 6.92473C33.9513 7.24014 33.7983 7.6129 33.7427 8.04301H39.5842Z" fill="#00B333"/>
<path d="M43.6868 15.6559V3.5914H46.5032V5.11828C46.9483 4.47312 47.4281 4.01434 47.9427 3.74194C48.4573 3.46953 49.0415 3.33333 49.6952 3.33333C51.5033 3.33333 52.7203 4.00717 53.3461 5.35484C53.5548 5.82796 53.6869 6.30824 53.7425 6.7957C53.7982 7.28315 53.826 7.92115 53.826 8.70968V15.6559H51.0304V8.66667C51.0304 7.50538 50.8357 6.70251 50.4462 6.25806C50.1124 5.89964 49.6187 5.72043 48.965 5.72043C48.1722 5.72043 47.5811 5.96416 47.1917 6.45161C46.9552 6.73835 46.7814 7.12545 46.6701 7.6129C46.5589 8.08602 46.5032 8.71685 46.5032 9.50538V15.6559H43.6868Z" fill="#00B333"/>
<path d="M60.9916 15.8925C59.8233 15.8925 58.7871 15.6272 57.8831 15.0968C56.979 14.5663 56.2697 13.8208 55.7551 12.8602C55.2544 11.8996 55.004 10.7957 55.004 9.54839C55.004 8.34408 55.2544 7.26882 55.7551 6.32258C56.2697 5.37634 56.979 4.64516 57.8831 4.12903C58.7871 3.59857 59.8233 3.33333 60.9916 3.33333C62.1599 3.33333 63.1961 3.59857 64.1001 4.12903C65.0181 4.6595 65.7274 5.39785 66.2281 6.34409C66.7427 7.27599 67 8.34408 67 9.54839C67 10.7957 66.7496 11.8996 66.249 12.8602C65.7483 13.8208 65.0389 14.5663 64.121 15.0968C63.2169 15.6272 62.1738 15.8925 60.9916 15.8925ZM60.9916 13.3978C61.9095 13.3978 62.6536 13.0394 63.2239 12.3226C63.7941 11.6057 64.0792 10.681 64.0792 9.54839C64.0792 8.45878 63.7941 7.56989 63.2239 6.88172C62.6536 6.17921 61.9095 5.82796 60.9916 5.82796C60.3935 5.82796 59.8581 5.98566 59.3852 6.30107C58.9123 6.61649 58.5437 7.06093 58.2795 7.63441C58.0152 8.19355 57.8831 8.83154 57.8831 9.54839C57.8831 10.6953 58.1682 11.6272 58.7384 12.3441C59.3226 13.0466 60.0736 13.3978 60.9916 13.3978Z" fill="#00B333"/>
<path d="M15.0778 4.37498L14.9475 13.5212L12.5929 11.9746C12.2362 11.7536 12.1346 11.6654 11.9093 11.8912L4.24496 19.5611L4.23806 16.1408C4.23806 15.681 4.41711 15.2398 4.73642 14.9126L15.0778 4.37498Z" fill="#00B333"/>
<path d="M0 15.1861L0.13025 6.03989L2.48487 7.58652C2.84162 7.80749 2.94324 7.89574 3.16849 7.66987L10.8328 0L10.8397 3.42032C10.8397 3.8801 10.6607 4.32136 10.3414 4.64855L0 15.1861Z" fill="#00B333"/>
</svg>
